REM DIRINDEX 1\2,1\3\5,1\3\6,1\4\7,1\4\8
REM DIRNAME cjc139,folder01,folder02,folder03,folder04,folder05,folder06,folder07
TITLE ""
FILE "JE_06.mp3" MP3
  TRACK 01 AUDIO
    TITLE "0:"
    INDEX 01 00:00:00
  TRACK 02 AUDIO
    TITLE "7:cjc139_2934"
    INDEX 01 00:00:17
  TRACK 03 AUDIO
    TITLE "0:"
    INDEX 01 00:03:10
  TRACK 04 AUDIO
    TITLE "8:cjc139_2935"
    INDEX 01 00:05:71
  TRACK 05 AUDIO
    TITLE "0:"
    INDEX 01 00:08:28
  TRACK 06 AUDIO
    TITLE "7:cjc139_2936"
    INDEX 01 00:11:11
  TRACK 07 AUDIO
    TITLE "0:"
    INDEX 01 00:13:51
  TRACK 08 AUDIO
    TITLE "8:cjc139_2937"
    INDEX 01 00:16:38
  TRACK 09 AUDIO
    TITLE "0:"
    INDEX 01 00:19:48
  TRACK 10 AUDIO
    TITLE "7:cjc139_2938"
    INDEX 01 00:22:36
  TRACK 11 AUDIO
    TITLE "0:"
    INDEX 01 00:25:03
  TRACK 12 AUDIO
    TITLE "8:cjc139_2939"
    INDEX 01 00:27:63
  TRACK 13 AUDIO
    TITLE "0:"
    INDEX 01 00:30:28
  TRACK 14 AUDIO
    TITLE "7:cjc139_2940"
    INDEX 01 00:33:15
  TRACK 15 AUDIO
    TITLE "0:"
    INDEX 01 00:35:63
  TRACK 16 AUDIO
    TITLE "8:cjc139_2941"
    INDEX 01 00:38:47
  TRACK 17 AUDIO
    TITLE "0:"
    INDEX 01 00:40:60
  TRACK 18 AUDIO
    TITLE "7:cjc139_2942"
    INDEX 01 00:43:44
  TRACK 19 AUDIO
    TITLE "0:"
    INDEX 01 00:46:23
  TRACK 20 AUDIO
    TITLE "8:cjc139_2943"
    INDEX 01 00:49:08
  TRACK 21 AUDIO
    TITLE "0:"
    INDEX 01 00:51:71
  TRACK 22 AUDIO
    TITLE "7:cjc139_2944"
    INDEX 01 00:54:56
  TRACK 23 AUDIO
    TITLE "0:"
    INDEX 01 00:57:27
  TRACK 24 AUDIO
    TITLE "8:cjc139_2945"
    INDEX 01 01:00:13
  TRACK 25 AUDIO
    TITLE "0:"
    INDEX 01 01:02:40
  TRACK 26 AUDIO
    TITLE "7:cjc139_2946"
    INDEX 01 01:05:26
  TRACK 27 AUDIO
    TITLE "0:"
    INDEX 01 01:08:15
  TRACK 28 AUDIO
    TITLE "8:cjc139_2947"
    INDEX 01 01:11:00
  TRACK 29 AUDIO
    TITLE "0:"
    INDEX 01 01:14:08
  TRACK 30 AUDIO
    TITLE "7:cjc139_2948"
    INDEX 01 01:16:67
  TRACK 31 AUDIO
    TITLE "0:"
    INDEX 01 01:18:62
  TRACK 32 AUDIO
    TITLE "8:cjc139_2949"
    INDEX 01 01:21:47
  TRACK 33 AUDIO
    TITLE "0:"
    INDEX 01 01:23:48
  TRACK 34 AUDIO
    TITLE "7:cjc139_2950"
    INDEX 01 01:26:34
  TRACK 35 AUDIO
    TITLE "0:"
    INDEX 01 01:28:65
  TRACK 36 AUDIO
    TITLE "8:cjc139_2951"
    INDEX 01 01:31:49
  TRACK 37 AUDIO
    TITLE "0:"
    INDEX 01 01:33:44
  TRACK 38 AUDIO
    TITLE "7:cjc139_2952"
    INDEX 01 01:36:31
  TRACK 39 AUDIO
    TITLE "0:"
    INDEX 01 01:38:36
  TRACK 40 AUDIO
    TITLE "8:cjc139_2953"
    INDEX 01 01:41:22
  TRACK 41 AUDIO
    TITLE "0:"
    INDEX 01 01:43:02
  TRACK 42 AUDIO
    TITLE "7:cjc139_2954"
    INDEX 01 01:45:61
  TRACK 43 AUDIO
    TITLE "0:"
    INDEX 01 01:48:52
  TRACK 44 AUDIO
    TITLE "8:cjc139_2955"
    INDEX 01 01:51:38
  TRACK 45 AUDIO
    TITLE "0:"
    INDEX 01 01:54:19
  TRACK 46 AUDIO
    TITLE "7:cjc139_2956"
    INDEX 01 01:57:08
  TRACK 47 AUDIO
    TITLE "0:"
    INDEX 01 02:00:18
  TRACK 48 AUDIO
    TITLE "8:cjc139_2957"
    INDEX 01 02:03:02
  TRACK 49 AUDIO
    TITLE "0:"
    INDEX 01 02:06:03
  TRACK 50 AUDIO
    TITLE "7:cjc139_2958"
    INDEX 01 02:08:64
  TRACK 51 AUDIO
    TITLE "0:"
    INDEX 01 02:11:57
  TRACK 52 AUDIO
    TITLE "8:cjc139_2959"
    INDEX 01 02:14:43
  TRACK 53 AUDIO
    TITLE "0:"
    INDEX 01 02:17:40
  TRACK 54 AUDIO
    TITLE "7:cjc139_2960"
    INDEX 01 02:20:26
  TRACK 55 AUDIO
    TITLE "0:"
    INDEX 01 02:22:62
  TRACK 56 AUDIO
    TITLE "8:cjc139_2961"
    INDEX 01 02:25:47
  TRACK 57 AUDIO
    TITLE "0:"
    INDEX 01 02:28:30
  TRACK 58 AUDIO
    TITLE "7:cjc139_2962"
    INDEX 01 02:31:16
  TRACK 59 AUDIO
    TITLE "0:"
    INDEX 01 02:33:29
  TRACK 60 AUDIO
    TITLE "8:cjc139_2963"
    INDEX 01 02:36:13
  TRACK 61 AUDIO
    TITLE "0:"
    INDEX 01 02:38:48
  TRACK 62 AUDIO
    TITLE "7:cjc139_2964"
    INDEX 01 02:41:32
  TRACK 63 AUDIO
    TITLE "0:"
    INDEX 01 02:43:70
  TRACK 64 AUDIO
    TITLE "8:cjc139_2965"
    INDEX 01 02:46:55
  TRACK 65 AUDIO
    TITLE "0:"
    INDEX 01 02:49:30
  TRACK 66 AUDIO
    TITLE "7:cjc139_2966"
    INDEX 01 02:52:16
  TRACK 67 AUDIO
    TITLE "0:"
    INDEX 01 02:54:43
  TRACK 68 AUDIO
    TITLE "8:cjc139_2967"
    INDEX 01 02:57:29
  TRACK 69 AUDIO
    TITLE "0:"
    INDEX 01 03:00:10
  TRACK 70 AUDIO
    TITLE "7:cjc139_2968"
    INDEX 01 03:02:68
  TRACK 71 AUDIO
    TITLE "0:"
    INDEX 01 03:04:63
  TRACK 72 AUDIO
    TITLE "8:cjc139_2969"
    INDEX 01 03:07:49
  TRACK 73 AUDIO
    TITLE "0:"
    INDEX 01 03:09:56
  TRACK 74 AUDIO
    TITLE "7:cjc139_2970"
    INDEX 01 03:12:45
  TRACK 75 AUDIO
    TITLE "0:"
    INDEX 01 03:15:47
  TRACK 76 AUDIO
    TITLE "8:cjc139_2971"
    INDEX 01 03:18:31
  TRACK 77 AUDIO
    TITLE "0:"
    INDEX 01 03:21:38
  TRACK 78 AUDIO
    TITLE "7:cjc139_2972"
    INDEX 01 03:24:26
  TRACK 79 AUDIO
    TITLE "0:"
    INDEX 01 03:26:62
  TRACK 80 AUDIO
    TITLE "8:cjc139_2973"
    INDEX 01 03:29:49
  TRACK 81 AUDIO
    TITLE "0:"
    INDEX 01 03:32:30
  TRACK 82 AUDIO
    TITLE "7:cjc139_2974"
    INDEX 01 03:35:16
  TRACK 83 AUDIO
    TITLE "0:"
    INDEX 01 03:37:43
  TRACK 84 AUDIO
    TITLE "8:cjc139_2975"
    INDEX 01 03:40:29
  TRACK 85 AUDIO
    TITLE "0:"
    INDEX 01 03:42:52
  TRACK 86 AUDIO
    TITLE "7:cjc139_2976"
    INDEX 01 03:45:38
  TRACK 87 AUDIO
    TITLE "0:"
    INDEX 01 03:47:57
  TRACK 88 AUDIO
    TITLE "8:cjc139_2977"
    INDEX 01 03:50:41
  TRACK 89 AUDIO
    TITLE "0:"
    INDEX 01 03:52:40
